<svg id="Capa_1" data-name="Capa 1" xmlns="http://www.w3.org/2000/svg" viewBox="0 0 798.5 21.26"><path d="M367.87,0c-10.69.67-18,2.87-19,5.6-.84,2.4,6.46,4.85,10.24,3.45,1.73-.61,1.28-1.19-1.47-2a7.06,7.06,0,0,1-2.56-1c0-.58,3.71-2,6.14-2.38a46.38,46.38,0,0,1,12.62.08c6.53,1,11.27,4.36,9.41,6.59-2.05,2.57-13.57,4.39-24.14,3.84-5.76-.29-8.77-.63-21.45-2.36-13.77-1.89-17.23-2.18-24.21-2.06-6.65.13-10.18.58-19.53,2.4-2.66.55-5.37,1-8.13,1.39-.64,0-1.15.1-1.15.23,0,.3-6.47,1.23-12.1,1.72-8.65.72-20.94.43-33.24-.85-3.58-.36-5.57-.68-5.57-.87,0-.36,6.21-1.57,11.21-2.19s20.81-.64,26.89,0l5.45.58c.71.06-.2-.11-2-.41a130.84,130.84,0,0,0-20.36-1.4A98,98,0,0,0,234.56,12l-7.5,1.19-9.79-1.61c-5.38-.89-15.82-2.66-23.25-3.91C175,4.37,163.35,3,148.24,2.33c-18.44-.85-27.34.15-58.91,6.6C72.61,12.34,63.2,14,58.46,14.35a238.17,238.17,0,0,1-34.83-.3c-7-.7-14-1.7-20.75-3L0,10.48,1.92,11c5.32,1.52,17.87,3.46,27.66,4.34,5.64.51,7.43.58,17.8.58,11.34,0,11.66,0,17.42-.69,6.85-.78,12.3-1.65,27.79-4.5,24.4-4.5,34.32-5.9,43.29-6.1,12.81-.29,32.21,1.32,48.41,4,9.09,1.5,33.17,5.75,33.42,5.92.52.28-2.94,1-9.47,2C198.89,18,196,18.3,189.86,18.26c-10.89-.09-21.32-1.36-44.5-5.48C127.88,9.65,120,8.59,114,8.59a43.35,43.35,0,0,0-11.65,1.26c-4.36,1.08-6,2.23-6,4.27,0,3.1,2.5,4.48,10.5,5.84a44.56,44.56,0,0,0,10.25.85c6.14,0,10.24-.57,13.38-1.85,4.16-1.73,2.05-5-3-4.54-2.5.21-2.62.74-.26,1.55,2,.68,2,.74,1.16,1.29-3.59,2.11-12.94,2-17.23-.3-2.3-1.19-3.07-2.59-2-3.48s4.67-1.87,7.87-2c4.93-.25,10.06.36,27.67,3.27,18.69,3.11,25.55,4,34.51,4.68,11.4.83,20.94.46,29.46-1.15,1.47-.28,5.5-1,9.09-1.7l6.47-1.21,2.94.42a303,303,0,0,0,34.39,2.72c11.59.19,17.35-.31,39.38-3.51a98.58,98.58,0,0,1,15.81-1.33c4.81,0,7.05.21,21.65,2.15,6.85.91,13.64,1.76,15.05,1.89q7.95.7,16,.87c8.58,0,19.47-1.42,26.13-3.4l3.65-1.11L403,15.19c6.6,2,17.49,3.38,26.07,3.4q8-.16,16-.87c1.41-.13,8.65-1,16.08-2,8.13-1.06,15-1.85,17.29-1.95a99.94,99.94,0,0,1,19.65,1.31c19.85,3,24.34,3.46,36.31,3.4a238.35,238.35,0,0,0,32.85-2.14c4-.49,4.42-.51,5.89-.19,6.31,1.29,12.75,2.36,19.28,3.2,8.51,1,20.61.58,33.81-1.08,3.2-.4,13.31-2,22.47-3.51,17.61-2.91,22.73-3.52,27.66-3.26,5.38.25,9.1,1.95,8.2,3.69-1.41,2.76-10.37,4.48-16.39,3.14a15.71,15.71,0,0,1-3.17-1c-.9-.57-.83-.61,1.15-1.29,2.37-.81,2.24-1.34-.25-1.55s-4.89.72-5.32,2.17a2.38,2.38,0,0,0-.06.37c0,1.24,2.94,2.56,7.36,3.3a39.11,39.11,0,0,0,8.39.58A44.56,44.56,0,0,0,686.52,20c5.44-.93,8.64-2,9.86-3.45a3.68,3.68,0,0,0-.58-4.82c-2.31-1.72-9.28-3.08-15.75-3.08-7.49,0-12.36.64-32.66,4.25-16.46,2.93-25.1,4.21-33.68,4.91a113.73,113.73,0,0,1-19.15.1c-5.83-.68-16.66-2.46-16.66-2.75a52.32,52.32,0,0,1,7.24-1.51c4-.69,12.86-2.17,19.86-3.4,19.47-3.4,32.08-4.88,46.3-5.48,15.56-.63,23.5.21,54.62,6,15.49,2.85,20.94,3.72,27.79,4.5,5.76.69,6.08.69,17.42.69,10.37,0,12.16-.07,17.8-.58,9.79-.87,22.34-2.82,27.66-4.34l1.92-.52-2.88.57c-6.78,1.3-13.71,2.3-20.75,3a238.85,238.85,0,0,1-34.88.3c-4.74-.34-14.15-2-30.87-5.42C677.6,2.47,668.7,1.47,650.26,2.32c-15.11.7-26.76,2-45.78,5.29-7.37,1.25-18.44,3.1-24.59,4.1l-11.08,1.83L560,12.15c-10.33-1.67-12.26-1.83-21.54-1.83A129.71,129.71,0,0,0,518.1,11.7c-1.8.29-2.69.49-2,.4a160,160,0,0,1,16-1.08,107,107,0,0,1,21.13,1.23c5.7,1,8.65,1.61,8.65,1.89s-7.5,1-14.35,1.38a163.94,163.94,0,0,1-21.83-.1c-6.28-.53-14.41-1.81-14.41-2.26,0-.19-.39-.29-.83-.23a67.57,67.57,0,0,1-7.56-1.15,95.69,95.69,0,0,0-19.4-2.1c-6.15,0-9.93.36-22.67,2.1s-15.69,2.07-21.45,2.36c-10.57.57-22.09-1.27-24.14-3.84-1.86-2.23,2.88-5.55,9.41-6.59a46.38,46.38,0,0,1,12.62-.08c2.43.38,6.14,1.82,6.14,2.38a7.06,7.06,0,0,1-2.56,1c-2.82.86-3.26,1.49-1.41,2.05,4.17,1.25,11-1.08,10.18-3.45-.51-1.43-2.36-2.53-6.21-3.68-10.63-3.19-30-2.36-41,1.73l-3.2,1.19L396,3.71A61.81,61.81,0,0,0,382.24.65,109,109,0,0,0,367.87,0Z"/></svg>