<?xml version="1.0" encoding="utf-8"?>
<!-- Generator: Adobe Illustrator 19.0.0, SVG Export Plug-In . SVG Version: 6.00 Build 0)  -->
<svg version="1.1" id="Layer_1" xmlns="http://www.w3.org/2000/svg" xmlns:xlink="http://www.w3.org/1999/xlink" x="0px" y="0px"
	 viewBox="0 0 500 500" style="enable-background:new 0 0 500 500;" xml:space="preserve">
<style type="text/css">
	.st0{fill:#C91F1A;}
	.st1{fill:#FFFFFF;}
</style>
<g id="XMLID_1_">
	<path id="XMLID_16_" class="st0" d="M423.1,197.6l-163.3-23.8c-5.2-0.8-13.6-0.8-18.8,0L76.9,197.6c-5.2,0.7-9.4,5.6-9.4,10.8v83.1
		c0,5.2,4.2,10.1,9.4,10.8l164.2,23.8c5.2,0.7,13.6,0.7,18.8,0l163.3-23.8c5.2-0.8,9.4-5.6,9.4-10.9v-83.1
		C432.5,203.2,428.3,198.3,423.1,197.6"/>
	<path id="XMLID_23_" class="st1" d="M130.2,285.1h-10.7v-30.9h-10.3v30.9H98.4v-70.3h10.7v29.6h10.3v-29.6h10.7V285.1z
		 M155.5,285.1h-10.7v-70.3h10.7V285.1z M200.5,272.7c0,8.7-4.3,13-13.1,13h-4.7c-8.7,0-13-4.3-13-12.9v-14.9h10.4v14.5
		c0,2.7,1.3,4,4.1,4h1.4c2.8,0,4.1-1.3,4.1-4v-9.6c0-2.9-1-4.2-3-5.7l-10.8-7.9c-4.8-3.4-6.2-6.7-6.2-12.1v-9.6
		c0-8.7,4.3-13.1,13.1-13.1h4.5c8.6,0,13,4.3,13,13V240h-10.5v-12.3c0-2.7-1.3-4-4-4h-1.3c-2.7,0-4,1.3-4,4v7.8c0,2.9,1,4.3,3,5.7
		l10.8,7.9c4.7,3.4,6.2,6.4,6.2,12.2V272.7z M241.4,224.6h-9.6v60.5H221v-60.5h-9.6v-9.7h30V224.6z M282.5,285.1h-27.9v-9.3h27.9
		V285.1z M354.6,285.1h-10.7v-70.3h10.7V285.1z"/>
	<path id="XMLID_26_" class="st1" d="M391.5,214.8h-14.3l-10,70.4h9.9l1.3-11h11.1l1.4,11h10.6L391.5,214.8z M379.6,264.6l4.4-35.1
		l4.3,35.1H379.6z"/>
	<path id="XMLID_29_" class="st1" d="M323.3,252.3c3.9-1.6,6.1-4.6,6.1-10.8v-13.3c0-8.7-4.3-13.1-13.1-13.1h-17.7v70.3h10.7v-28.2
		h4.8c3.1,0,4.5,1.4,4.5,4.5v23.7h10.7v-23.9C329.5,256.2,327.7,253.5,323.3,252.3 M318.7,243.6c0,2.9-1.4,4.3-4.4,4.3h-4.8v-23.2
		h5.2c2.7,0,4,1.3,4,4V243.6z"/>
	<path id="XMLID_32_" class="st1" d="M271.4,214.6h-5.7c-8.7,0-13.1,4.3-13.1,13.1v24.2c0,8.7,4.3,13.1,13.1,13.1h5.7
		c8.7,0,13.1-4.3,13.1-13.1v-24.2C284.4,218.9,280.1,214.6,271.4,214.6 M273.7,251.3c0,2.8-1.3,4.1-4,4.1h-2.2
		c-2.8,0-4.1-1.3-4.1-4.1v-23.2c0-2.8,1.3-4.1,4.1-4.1h2.2c2.7,0,4,1.3,4,4.1V251.3z"/>
</g>
</svg>
